<?xml version="1.0" encoding="utf-8"?>
<!-- Generator: Adobe Illustrator 28.1.0, SVG Export Plug-In . SVG Version: 6.00 Build 0)  -->
<svg version="1.1" id="Layer_1" xmlns="http://www.w3.org/2000/svg" xmlns:xlink="http://www.w3.org/1999/xlink" x="0px" y="0px"
	 viewBox="0 0 24 24" style="enable-background:new 0 0 24 24;" xml:space="preserve">
<style type="text/css">
	.st0{fill-rule:evenodd;clip-rule:evenodd;fill:#FFFFFF;stroke:#727272;stroke-linejoin:round;}
	.st1{fill-rule:evenodd;clip-rule:evenodd;fill:#F0F0F0;stroke:#727272;stroke-linejoin:round;}
	.st2{fill:#3D88E1;stroke:#000000;stroke-miterlimit:10;}
	.st3{fill:#D55358;stroke:#000000;stroke-miterlimit:10;}
</style>
<g transform="translate(0 -1028.3622)">
	<path class="st0" d="M4.5,1050.9v-21h10l5,5v16L4.5,1050.9z"/>
	<path class="st1" d="M14.5,1029.9v5h5L14.5,1029.9z"/>
</g>
<g id="SVGRoot" xmlns:dc="http://purl.org/dc/elements/1.1/" xmlns:cc="http://creativecommons.org/ns#" xmlns:inkscape="http://www.inkscape.org/namespaces/inkscape" xmlns:rdf="http://www.w3.org/1999/02/22-rdf-syntax-ns#" xmlns:svg="http://www.w3.org/2000/svg" xmlns:sodipodi="http://sodipodi.sourceforge.net/DTD/sodipodi-0.dtd">
	
		<sodipodi:namedview  bordercolor="#666666" borderopacity="1.0" id="base" inkscape:current-layer="layer1" inkscape:cx="9.3247571" inkscape:cy="53.238203" inkscape:document-rotation="0" inkscape:document-units="px" inkscape:object-paths="true" inkscape:pageopacity="0.0" inkscape:pageshadow="2" inkscape:snap-bbox="true" inkscape:snap-global="true" inkscape:snap-grids="false" inkscape:snap-nodes="true" inkscape:snap-others="false" inkscape:window-height="847" inkscape:window-maximized="0" inkscape:window-width="1252" inkscape:window-x="2225" inkscape:window-y="208" inkscape:zoom="5.0716018" pagecolor="#ffffff" showgrid="false" showguides="false">
		<inkscape:grid  empspacing="4" id="grid2640" type="xygrid"></inkscape:grid>
	</sodipodi:namedview>
	<polygon class="st2" points="12,13 12,14.6 13.1,14.6 13.1,16.3 12,16.3 12,15.7 9.6,15.7 9.6,15 8.8,15 8.8,13.3 6.5,13.3 
		6.5,8.8 10.2,8.8 10.2,11.8 13.1,11.8 13.1,13 	"/>
	<polygon class="st3" points="17.5,8.8 17.5,17.1 16,17.1 16,12.5 14.8,12.5 14.8,16.3 13.1,16.3 13.1,14.6 12,14.6 12,13 13.1,13 
		13.1,11.8 10.2,11.8 10.2,8.8 	"/>
	<polygon class="st2" points="17.5,17.1 17.5,19.8 9.5,19.8 9.5,18.4 13.9,18.4 13.9,17.5 12,17.5 12,16.3 14.8,16.3 14.8,12.5 
		16,12.5 16,17.1 	"/>
	<polygon class="st3" points="13.9,17.5 13.9,18.4 9.5,18.4 9.5,19.8 6.5,19.8 6.5,13.3 8.8,13.3 8.8,15 9.6,15 9.6,15.7 12,15.7 
		12,17.5 	"/>
</g>
</svg>
